# xmcd
#
# Track frame offsets:
# 150
# 23541
# 50199
# 75213
# 109721
# 149572
# 179681
# 215294
#
# Disc length: 3519 seconds
#
#
# Revision: 0
# Processed by: cddbd v1.5.2PL0 Copyright (c) Steve Scherf et al.
# Submitted via: FreeRIP 2.95 
#
DISCID=690dbd08
DTITLE=Colriss - Live at B.B. Kings
DYEAR=2000
DGENRE=Blues
TTITLE0=I Got It Bad
TTITLE1=God Bless the Child
TTITLE2=Best News I Heard All Day
TTITLE3=Sunnertime
TTITLE4=I Heard It Through the Grapevine
TTITLE5=I Need a Man
TTITLE6=Sweet Nasty Lovin'
TTITLE7=Stormy Monday - What'd I Say
EXTD=
EXTT0=
EXTT1=
EXTT2=
EXTT3=
EXTT4=
EXTT5=
EXTT6=
EXTT7=
PLAYORDER=
